<?xml version="1.0" encoding="UTF-8"?>
<svg version="1.1" xmlns="http://www.w3.org/2000/svg" width="236" height="238">
<path d="M0 0 C1.22589844 0.01353516 1.22589844 0.01353516 2.4765625 0.02734375 C3.10304687 0.03894531 3.72953125 0.05054687 4.375 0.0625 C4.87 1.5475 4.87 1.5475 5.375 3.0625 C6.035 3.0625 6.695 3.0625 7.375 3.0625 C7.375 3.7225 7.375 4.3825 7.375 5.0625 C8.365 5.0625 9.355 5.0625 10.375 5.0625 C10.375 5.7225 10.375 6.3825 10.375 7.0625 C11.035 7.0625 11.695 7.0625 12.375 7.0625 C12.375 10.0325 12.375 13.0025 12.375 16.0625 C13.365 16.0625 14.355 16.0625 15.375 16.0625 C15.375 19.0325 15.375 22.0025 15.375 25.0625 C16.035 25.0625 16.695 25.0625 17.375 25.0625 C18.57772819 27.46795638 18.47571472 29.01246953 18.4375 31.6875 C18.42847656 32.50476563 18.41945313 33.32203125 18.41015625 34.1640625 C18.39855469 34.79054687 18.38695313 35.41703125 18.375 36.0625 C19.035 36.0625 19.695 36.0625 20.375 36.0625 C20.375 39.0325 20.375 42.0025 20.375 45.0625 C21.86 45.5575 21.86 45.5575 23.375 46.0625 C23.375 47.0525 23.375 48.0425 23.375 49.0625 C25.685 49.0625 27.995 49.0625 30.375 49.0625 C30.375 48.4025 30.375 47.7425 30.375 47.0625 C31.365 47.0625 32.355 47.0625 33.375 47.0625 C33.375 46.4025 33.375 45.7425 33.375 45.0625 C34.035 45.0625 34.695 45.0625 35.375 45.0625 C35.375 44.4025 35.375 43.7425 35.375 43.0625 C36.75 41.4375 36.75 41.4375 38.375 40.0625 C39.035 40.0625 39.695 40.0625 40.375 40.0625 C40.375 39.4025 40.375 38.7425 40.375 38.0625 C41.365 38.0625 42.355 38.0625 43.375 38.0625 C43.375 37.4025 43.375 36.7425 43.375 36.0625 C46.46309695 34.29787317 47.60812136 34.0625 51.375 34.0625 C51.375 33.4025 51.375 32.7425 51.375 32.0625 C53.025 31.7325 54.675 31.4025 56.375 31.0625 C56.375 30.4025 56.375 29.7425 56.375 29.0625 C58.025 29.0625 59.675 29.0625 61.375 29.0625 C61.375 28.4025 61.375 27.7425 61.375 27.0625 C65.995 27.0625 70.615 27.0625 75.375 27.0625 C75.705 28.3825 76.035 29.7025 76.375 31.0625 C77.035 31.0625 77.695 31.0625 78.375 31.0625 C78.66071429 38.49107143 78.66071429 38.49107143 76.375 42.0625 C75.385 42.0625 74.395 42.0625 73.375 42.0625 C73.375 43.0525 73.375 44.0425 73.375 45.0625 C72.715 45.0625 72.055 45.0625 71.375 45.0625 C71.045 46.3825 70.715 47.7025 70.375 49.0625 C69.715 49.0625 69.055 49.0625 68.375 49.0625 C68.375 49.7225 68.375 50.3825 68.375 51.0625 C67.715 51.0625 67.055 51.0625 66.375 51.0625 C66.045 52.7125 65.715 54.3625 65.375 56.0625 C64.715 56.0625 64.055 56.0625 63.375 56.0625 C63.375 57.3825 63.375 58.7025 63.375 60.0625 C62.715 60.0625 62.055 60.0625 61.375 60.0625 C60.49994305 64.21902053 60.28177458 66.96290469 61.375 71.0625 C62.035 71.0625 62.695 71.0625 63.375 71.0625 C63.375 72.0525 63.375 73.0425 63.375 74.0625 C64.035 74.0625 64.695 74.0625 65.375 74.0625 C65.705 75.3825 66.035 76.7025 66.375 78.0625 C67.035 78.0625 67.695 78.0625 68.375 78.0625 C68.375 78.7225 68.375 79.3825 68.375 80.0625 C69.86 80.5575 69.86 80.5575 71.375 81.0625 C71.375 82.3825 71.375 83.7025 71.375 85.0625 C72.035 85.0625 72.695 85.0625 73.375 85.0625 C73.5915625 86.6403125 73.5915625 86.6403125 73.8125 88.25 C74.25026966 91.21710549 74.75304866 94.13044366 75.375 97.0625 C74.715 97.0625 74.055 97.0625 73.375 97.0625 C73.375 100.3625 73.375 103.6625 73.375 107.0625 C72.715 107.0625 72.055 107.0625 71.375 107.0625 C71.375 107.7225 71.375 108.3825 71.375 109.0625 C69.39590602 109.08936553 67.41671029 109.10883375 65.4375 109.125 C64.33535156 109.13660156 63.23320312 109.14820313 62.09765625 109.16015625 C59.375 109.0625 59.375 109.0625 58.375 108.0625 C56.69316052 107.82962992 55.0037584 107.64985834 53.3125 107.5 C51.93384766 107.37431641 51.93384766 107.37431641 50.52734375 107.24609375 C49.81707031 107.18550781 49.10679687 107.12492187 48.375 107.0625 C48.375 106.0725 48.375 105.0825 48.375 104.0625 C45.735 104.0625 43.095 104.0625 40.375 104.0625 C40.375 103.4025 40.375 102.7425 40.375 102.0625 C38.725 102.0625 37.075 102.0625 35.375 102.0625 C35.375 101.4025 35.375 100.7425 35.375 100.0625 C34.59125 99.918125 33.8075 99.77375 33 99.625 C30.375 99.0625 30.375 99.0625 28.375 98.0625 C28.375 97.4025 28.375 96.7425 28.375 96.0625 C26.725 96.0625 25.075 96.0625 23.375 96.0625 C23.375 95.0725 23.375 94.0825 23.375 93.0625 C22.385 93.0625 21.395 93.0625 20.375 93.0625 C20.375 92.4025 20.375 91.7425 20.375 91.0625 C17.735 91.0625 15.095 91.0625 12.375 91.0625 C12.25125 91.805 12.1275 92.5475 12 93.3125 C11.42013299 95.86391485 10.63791261 97.7892573 9.375 100.0625 C8.715 100.0625 8.055 100.0625 7.375 100.0625 C7.230625 100.660625 7.08625 101.25875 6.9375 101.875 C6.4877561 103.62400404 5.94607659 105.34927023 5.375 107.0625 C4.385 107.0625 3.395 107.0625 2.375 107.0625 C2.375 109.0425 2.375 111.0225 2.375 113.0625 C1.715 113.0625 1.055 113.0625 0.375 113.0625 C0.375 114.7125 0.375 116.3625 0.375 118.0625 C-0.615 118.0625 -1.605 118.0625 -2.625 118.0625 C-2.625 118.7225 -2.625 119.3825 -2.625 120.0625 C-3.285 120.0625 -3.945 120.0625 -4.625 120.0625 C-4.625 120.7225 -4.625 121.3825 -4.625 122.0625 C-5.615 122.0625 -6.605 122.0625 -7.625 122.0625 C-7.625 122.7225 -7.625 123.3825 -7.625 124.0625 C-14.225 124.0625 -20.825 124.0625 -27.625 124.0625 C-27.625 123.4025 -27.625 122.7425 -27.625 122.0625 C-28.285 122.0625 -28.945 122.0625 -29.625 122.0625 C-30.98921031 119.33407939 -30.50307211 117.45296682 -30.1875 114.4375 C-30.08566406 113.43460937 -29.98382813 112.43171875 -29.87890625 111.3984375 C-29.79511719 110.62757813 -29.71132812 109.85671875 -29.625 109.0625 C-28.965 109.0625 -28.305 109.0625 -27.625 109.0625 C-27.625 106.0925 -27.625 103.1225 -27.625 100.0625 C-26.635 100.0625 -25.645 100.0625 -24.625 100.0625 C-24.686875 99.36125 -24.74875 98.66 -24.8125 97.9375 C-24.58243899 94.40989788 -23.33299432 92.12265649 -21.625 89.0625 C-20.965 89.0625 -20.305 89.0625 -19.625 89.0625 C-19.625 86.0925 -19.625 83.1225 -19.625 80.0625 C-21.275 80.0625 -22.925 80.0625 -24.625 80.0625 C-24.625 79.4025 -24.625 78.7425 -24.625 78.0625 C-25.78257813 78.08570313 -26.94015625 78.10890625 -28.1328125 78.1328125 C-29.67186851 78.15158148 -31.21093155 78.16978046 -32.75 78.1875 C-33.51054688 78.20425781 -34.27109375 78.22101563 -35.0546875 78.23828125 C-39.65770731 78.27796246 -43.28964004 77.82157577 -47.625 76.0625 C-47.625 75.0725 -47.625 74.0825 -47.625 73.0625 C-48.615 73.0625 -49.605 73.0625 -50.625 73.0625 C-50.625 72.4025 -50.625 71.7425 -50.625 71.0625 C-51.285 71.0625 -51.945 71.0625 -52.625 71.0625 C-52.625 66.1125 -52.625 61.1625 -52.625 56.0625 C-51.635 56.0625 -50.645 56.0625 -49.625 56.0625 C-49.625 55.4025 -49.625 54.7425 -49.625 54.0625 C-37.415 54.0625 -25.205 54.0625 -12.625 54.0625 C-12.295 53.0725 -11.965 52.0825 -11.625 51.0625 C-10.965 51.0625 -10.305 51.0625 -9.625 51.0625 C-9.63023682 49.85601807 -9.63547363 48.64953613 -9.64086914 47.40649414 C-9.65891611 42.94686622 -9.67043089 38.48724154 -9.67993164 34.02758789 C-9.68497256 32.09431415 -9.69180519 30.16104424 -9.70043945 28.2277832 C-9.71251565 25.45523128 -9.71823057 22.68272959 -9.72265625 19.91015625 C-9.72781754 19.04036636 -9.73297882 18.17057648 -9.73829651 17.27442932 C-9.73849185 15.20344186 -9.68708168 13.13255676 -9.625 11.0625 C-9.295 10.7325 -8.965 10.4025 -8.625 10.0625 C-8.09571924 7.74967649 -7.66166285 5.42528087 -7.22265625 3.09375 C-7.02542969 2.4234375 -6.82820313 1.753125 -6.625 1.0625 C-4.21954362 -0.14022819 -2.67503047 -0.03821472 0 0 Z " fill="#FDC811" transform="translate(97.625,73.9375)"/>
<path d="M0 0 C1.22589844 0.01353516 1.22589844 0.01353516 2.4765625 0.02734375 C3.10304687 0.03894531 3.72953125 0.05054687 4.375 0.0625 C4.87 1.5475 4.87 1.5475 5.375 3.0625 C6.035 3.0625 6.695 3.0625 7.375 3.0625 C7.375 3.7225 7.375 4.3825 7.375 5.0625 C8.365 5.0625 9.355 5.0625 10.375 5.0625 C10.375 5.7225 10.375 6.3825 10.375 7.0625 C11.035 7.0625 11.695 7.0625 12.375 7.0625 C12.375 10.0325 12.375 13.0025 12.375 16.0625 C13.365 16.0625 14.355 16.0625 15.375 16.0625 C15.375 19.0325 15.375 22.0025 15.375 25.0625 C16.035 25.0625 16.695 25.0625 17.375 25.0625 C18.57772819 27.46795638 18.47571472 29.01246953 18.4375 31.6875 C18.42847656 32.50476563 18.41945313 33.32203125 18.41015625 34.1640625 C18.39855469 34.79054687 18.38695313 35.41703125 18.375 36.0625 C19.035 36.0625 19.695 36.0625 20.375 36.0625 C20.375 39.0325 20.375 42.0025 20.375 45.0625 C21.86 45.5575 21.86 45.5575 23.375 46.0625 C23.375 47.0525 23.375 48.0425 23.375 49.0625 C25.685 49.0625 27.995 49.0625 30.375 49.0625 C30.375 48.4025 30.375 47.7425 30.375 47.0625 C31.365 47.0625 32.355 47.0625 33.375 47.0625 C33.375 46.4025 33.375 45.7425 33.375 45.0625 C34.035 45.0625 34.695 45.0625 35.375 45.0625 C35.375 44.4025 35.375 43.7425 35.375 43.0625 C36.75 41.4375 36.75 41.4375 38.375 40.0625 C39.035 40.0625 39.695 40.0625 40.375 40.0625 C40.375 39.4025 40.375 38.7425 40.375 38.0625 C41.365 38.0625 42.355 38.0625 43.375 38.0625 C43.375 37.4025 43.375 36.7425 43.375 36.0625 C46.46309695 34.29787317 47.60812136 34.0625 51.375 34.0625 C51.375 33.4025 51.375 32.7425 51.375 32.0625 C53.025 31.7325 54.675 31.4025 56.375 31.0625 C56.375 30.4025 56.375 29.7425 56.375 29.0625 C58.025 29.0625 59.675 29.0625 61.375 29.0625 C61.375 28.4025 61.375 27.7425 61.375 27.0625 C65.995 27.0625 70.615 27.0625 75.375 27.0625 C75.705 28.3825 76.035 29.7025 76.375 31.0625 C77.035 31.0625 77.695 31.0625 78.375 31.0625 C78.66071429 38.49107143 78.66071429 38.49107143 76.375 42.0625 C75.385 42.0625 74.395 42.0625 73.375 42.0625 C73.375 43.0525 73.375 44.0425 73.375 45.0625 C72.715 45.0625 72.055 45.0625 71.375 45.0625 C71.045 46.3825 70.715 47.7025 70.375 49.0625 C69.715 49.0625 69.055 49.0625 68.375 49.0625 C68.375 49.7225 68.375 50.3825 68.375 51.0625 C67.715 51.0625 67.055 51.0625 66.375 51.0625 C66.045 52.7125 65.715 54.3625 65.375 56.0625 C64.715 56.0625 64.055 56.0625 63.375 56.0625 C63.375 57.3825 63.375 58.7025 63.375 60.0625 C62.715 60.0625 62.055 60.0625 61.375 60.0625 C60.49994305 64.21902053 60.28177458 66.96290469 61.375 71.0625 C62.035 71.0625 62.695 71.0625 63.375 71.0625 C63.375 72.0525 63.375 73.0425 63.375 74.0625 C64.035 74.0625 64.695 74.0625 65.375 74.0625 C65.705 75.3825 66.035 76.7025 66.375 78.0625 C67.035 78.0625 67.695 78.0625 68.375 78.0625 C68.375 78.7225 68.375 79.3825 68.375 80.0625 C69.86 80.5575 69.86 80.5575 71.375 81.0625 C71.375 82.3825 71.375 83.7025 71.375 85.0625 C72.035 85.0625 72.695 85.0625 73.375 85.0625 C73.5915625 86.6403125 73.5915625 86.6403125 73.8125 88.25 C74.25026966 91.21710549 74.75304866 94.13044366 75.375 97.0625 C74.715 97.0625 74.055 97.0625 73.375 97.0625 C73.375 100.3625 73.375 103.6625 73.375 107.0625 C72.715 107.0625 72.055 107.0625 71.375 107.0625 C71.375 107.7225 71.375 108.3825 71.375 109.0625 C69.39590602 109.08936553 67.41671029 109.10883375 65.4375 109.125 C64.33535156 109.13660156 63.23320312 109.14820313 62.09765625 109.16015625 C59.375 109.0625 59.375 109.0625 58.375 108.0625 C56.69316052 107.82962992 55.0037584 107.64985834 53.3125 107.5 C51.93384766 107.37431641 51.93384766 107.37431641 50.52734375 107.24609375 C49.81707031 107.18550781 49.10679687 107.12492187 48.375 107.0625 C48.375 106.0725 48.375 105.0825 48.375 104.0625 C45.735 104.0625 43.095 104.0625 40.375 104.0625 C40.375 103.4025 40.375 102.7425 40.375 102.0625 C38.725 102.0625 37.075 102.0625 35.375 102.0625 C35.375 101.4025 35.375 100.7425 35.375 100.0625 C34.59125 99.918125 33.8075 99.77375 33 99.625 C30.375 99.0625 30.375 99.0625 28.375 98.0625 C28.375 97.4025 28.375 96.7425 28.375 96.0625 C26.725 96.0625 25.075 96.0625 23.375 96.0625 C23.375 95.0725 23.375 94.0825 23.375 93.0625 C22.385 93.0625 21.395 93.0625 20.375 93.0625 C20.375 92.4025 20.375 91.7425 20.375 91.0625 C17.735 91.0625 15.095 91.0625 12.375 91.0625 C12.25125 91.805 12.1275 92.5475 12 93.3125 C11.42013299 95.86391485 10.63791261 97.7892573 9.375 100.0625 C8.715 100.0625 8.055 100.0625 7.375 100.0625 C7.230625 100.660625 7.08625 101.25875 6.9375 101.875 C6.4877561 103.62400404 5.94607659 105.34927023 5.375 107.0625 C4.385 107.0625 3.395 107.0625 2.375 107.0625 C2.375 109.0425 2.375 111.0225 2.375 113.0625 C1.715 113.0625 1.055 113.0625 0.375 113.0625 C0.375 114.7125 0.375 116.3625 0.375 118.0625 C-0.615 118.0625 -1.605 118.0625 -2.625 118.0625 C-2.625 118.7225 -2.625 119.3825 -2.625 120.0625 C-3.285 120.0625 -3.945 120.0625 -4.625 120.0625 C-4.625 120.7225 -4.625 121.3825 -4.625 122.0625 C-5.615 122.0625 -6.605 122.0625 -7.625 122.0625 C-7.625 122.7225 -7.625 123.3825 -7.625 124.0625 C-14.225 124.0625 -20.825 124.0625 -27.625 124.0625 C-27.625 123.4025 -27.625 122.7425 -27.625 122.0625 C-28.285 122.0625 -28.945 122.0625 -29.625 122.0625 C-30.98921031 119.33407939 -30.50307211 117.45296682 -30.1875 114.4375 C-30.08566406 113.43460937 -29.98382813 112.43171875 -29.87890625 111.3984375 C-29.79511719 110.62757813 -29.71132812 109.85671875 -29.625 109.0625 C-28.965 109.0625 -28.305 109.0625 -27.625 109.0625 C-27.625 106.0925 -27.625 103.1225 -27.625 100.0625 C-26.635 100.0625 -25.645 100.0625 -24.625 100.0625 C-24.686875 99.36125 -24.74875 98.66 -24.8125 97.9375 C-24.58243899 94.40989788 -23.33299432 92.12265649 -21.625 89.0625 C-20.965 89.0625 -20.305 89.0625 -19.625 89.0625 C-19.625 86.0925 -19.625 83.1225 -19.625 80.0625 C-21.275 80.0625 -22.925 80.0625 -24.625 80.0625 C-24.625 79.4025 -24.625 78.7425 -24.625 78.0625 C-25.78257813 78.08570313 -26.94015625 78.10890625 -28.1328125 78.1328125 C-29.67186851 78.15158148 -31.21093155 78.16978046 -32.75 78.1875 C-33.51054688 78.20425781 -34.27109375 78.22101563 -35.0546875 78.23828125 C-39.65770731 78.27796246 -43.28964004 77.82157577 -47.625 76.0625 C-47.625 75.0725 -47.625 74.0825 -47.625 73.0625 C-48.615 73.0625 -49.605 73.0625 -50.625 73.0625 C-50.625 72.4025 -50.625 71.7425 -50.625 71.0625 C-51.285 71.0625 -51.945 71.0625 -52.625 71.0625 C-52.625 66.1125 -52.625 61.1625 -52.625 56.0625 C-51.635 56.0625 -50.645 56.0625 -49.625 56.0625 C-49.625 55.4025 -49.625 54.7425 -49.625 54.0625 C-37.415 54.0625 -25.205 54.0625 -12.625 54.0625 C-12.295 53.0725 -11.965 52.0825 -11.625 51.0625 C-10.965 51.0625 -10.305 51.0625 -9.625 51.0625 C-9.63023682 49.85601807 -9.63547363 48.64953613 -9.64086914 47.40649414 C-9.65891611 42.94686622 -9.67043089 38.48724154 -9.67993164 34.02758789 C-9.68497256 32.09431415 -9.69180519 30.16104424 -9.70043945 28.2277832 C-9.71251565 25.45523128 -9.71823057 22.68272959 -9.72265625 19.91015625 C-9.72781754 19.04036636 -9.73297882 18.17057648 -9.73829651 17.27442932 C-9.73849185 15.20344186 -9.68708168 13.13255676 -9.625 11.0625 C-9.295 10.7325 -8.965 10.4025 -8.625 10.0625 C-8.09571924 7.74967649 -7.66166285 5.42528087 -7.22265625 3.09375 C-7.02542969 2.4234375 -6.82820313 1.753125 -6.625 1.0625 C-4.21954362 -0.14022819 -2.67503047 -0.03821472 0 0 Z M-2.625 4.0625 C-2.625 4.7225 -2.625 5.3825 -2.625 6.0625 C-3.285 6.0625 -3.945 6.0625 -4.625 6.0625 C-5.83515117 12.65528987 -6.02210621 19.18770156 -6.25 25.875 C-6.31755493 27.81185669 -6.31755493 27.81185669 -6.38647461 29.7878418 C-6.67221241 39.27659412 -6.51381581 48.6137042 -5.625 58.0625 C-6.140625 57.90007812 -6.65625 57.73765625 -7.1875 57.5703125 C-16.39701187 55.65166419 -27.07092413 57.0446752 -36.4375 57.4375 C-37.30310547 57.46827637 -38.16871094 57.49905273 -39.06054688 57.53076172 C-40.27774414 57.58901123 -40.27774414 57.58901123 -41.51953125 57.6484375 C-42.23987549 57.6798584 -42.96021973 57.7112793 -43.70239258 57.74365234 C-45.94756889 57.98064254 -45.94756889 57.98064254 -48.625 60.0625 C-49.46041854 62.43007327 -49.46041854 62.43007327 -48.625 65.0625 C-43.15278386 70.29150654 -37.91250518 71.0139381 -30.625 72.0625 C-27.76617142 72.58003469 -24.91470449 73.13475958 -22.0625 73.6875 C-17.37735102 74.67714641 -17.37735102 74.67714641 -12.625 75.0625 C-12.89054687 75.6915625 -13.15609375 76.320625 -13.4296875 76.96875 C-15.09209238 80.99735161 -16.69663188 84.93608296 -17.6875 89.1875 C-18.68753751 93.32098836 -20.0819894 97.11071719 -21.625 101.0625 C-22.36326672 102.9548082 -23.09204132 104.85084036 -23.8125 106.75 C-24.15667969 107.64074219 -24.50085938 108.53148437 -24.85546875 109.44921875 C-25.6440684 112.12725513 -25.76998162 114.28785182 -25.625 117.0625 C-21.55318199 118.41977267 -17.88185898 118.57392475 -13.625 118.0625 C-9.0668703 115.67984129 -7.2482745 111.95960139 -4.9375 107.5546875 C-1.0310818 100.13714343 3.43028129 92.83551807 8.375 86.0625 C8.80425781 85.46308594 9.23351562 84.86367187 9.67578125 84.24609375 C11.375 83.0625 11.375 83.0625 14.24609375 83.2109375 C17.33520738 84.05167005 19.67357401 85.08980554 22.4375 86.6875 C23.38367188 87.22246094 24.32984375 87.75742188 25.3046875 88.30859375 C26.31789063 88.88738281 27.33109375 89.46617187 28.375 90.0625 C40.7481518 96.94779506 51.85173514 102.40765986 66.375 102.0625 C67.66680734 98.18707799 68.10341833 94.08498789 67.375 90.0625 C65.12541666 87.47916771 65.12541666 87.47916771 62.375 85.0625 C61.328125 83.12109375 61.328125 83.12109375 60.375 81 C58.66402196 77.28592571 56.63863389 75.55316797 53.375 73.0625 C52.1875 70.375 52.1875 70.375 51.375 68.0625 C50.715 67.7325 50.055 67.4025 49.375 67.0625 C49.375 67.7225 49.375 68.3825 49.375 69.0625 C48.715 69.0625 48.055 69.0625 47.375 69.0625 C48.32057321 62.32529088 50.1995648 59.95551025 55.4765625 55.79296875 C58.3061432 53.2137419 59.07324483 50.62519837 60.375 47.0625 C61.375 46.0625 62.375 45.0625 63.375 44.0625 C64.46078173 42.04661848 65.37851524 39.99213466 66.3125 37.90234375 C67.375 36.0625 67.375 36.0625 70.375 34.0625 C70.375 33.4025 70.375 32.7425 70.375 32.0625 C68.395 31.7325 66.415 31.4025 64.375 31.0625 C64.375 31.7225 64.375 32.3825 64.375 33.0625 C63.158125 33.165625 61.94125 33.26875 60.6875 33.375 C56.97352427 33.83677318 54.37873615 34.71583113 51.375 37.0625 C51.375 37.7225 51.375 38.3825 51.375 39.0625 C49.725 39.3925 48.075 39.7225 46.375 40.0625 C46.375 40.7225 46.375 41.3825 46.375 42.0625 C45.055 42.3925 43.735 42.7225 42.375 43.0625 C42.375 43.7225 42.375 44.3825 42.375 45.0625 C41.611875 45.145 40.84875 45.2275 40.0625 45.3125 C36.77764129 46.22920476 36.27614438 47.3347711 34.375 50.0625 C32.1875 51.3125 32.1875 51.3125 30.375 52.0625 C30.375 52.7225 30.375 53.3825 30.375 54.0625 C28.58406809 54.14336147 26.79210372 54.20162702 25 54.25 C23.50339844 54.30220703 23.50339844 54.30220703 21.9765625 54.35546875 C20.68878906 54.21044922 20.68878906 54.21044922 19.375 54.0625 C17.375 51.0625 17.375 51.0625 16.875 48.4375 C16.71 47.65375 16.545 46.87 16.375 46.0625 C15.385 45.5675 15.385 45.5675 14.375 45.0625 C13.77734375 42.59375 13.77734375 42.59375 13.3125 39.5625 C13.02069564 36.00195782 13.02069564 36.00195782 11.375 33.0625 C11.0253697 31.5288276 10.72033014 29.98488472 10.4375 28.4375 C9.62847058 24.23054699 8.63616103 20.16127334 7.375 16.0625 C7.106875 15.03125 6.83875 14 6.5625 12.9375 C5.10733397 9.41446646 3.25832425 7.52387436 0.375 5.0625 C-0.615 4.7325 -1.605 4.4025 -2.625 4.0625 Z " fill="#151515" transform="translate(97.625,73.9375)"/>
<path d="M0 0 C3.3 0 6.6 0 10 0 C10 0.66 10 1.32 10 2 C10.66 2 11.32 2 12 2 C12 3.65 12 5.3 12 7 C12.99 7 13.98 7 15 7 C15 8.98 15 10.96 15 13 C15.66 13 16.32 13 17 13 C17 13.99 17 14.98 17 16 C18.98 16 20.96 16 23 16 C23.33 15.01 23.66 14.02 24 13 C29.36842105 12.64210526 29.36842105 12.64210526 31.875 14.0625 C33.58196395 17.00227124 33.18799766 19.67870803 33 23 C32.01 23.33 31.02 23.66 30 24 C29.505 25.485 29.505 25.485 29 27 C28.34 27 27.68 27 27 27 C27 28.98 27 30.96 27 33 C27.99 33.33 28.98 33.66 30 34 C30 36.64 30 39.28 30 42 C17.33029613 42.3690205 17.33029613 42.3690205 12 40 C12 40.66 12 41.32 12 42 C11.34 42 10.68 42 10 42 C9.87625 42.639375 9.7525 43.27875 9.625 43.9375 C9.315625 44.9584375 9.315625 44.9584375 9 46 C5.95016004 47.52491998 3.3576631 47.23562548 0 47 C-1.9375 45.9375 -1.9375 45.9375 -3 44 C-3.1875 40.3125 -3.1875 40.3125 -3 37 C-3.66 37 -4.32 37 -5 37 C-5 36.34 -5 35.68 -5 35 C-5.99 35 -6.98 35 -8 35 C-8 34.34 -8 33.68 -8 33 C-9.65 33 -11.3 33 -13 33 C-13 32.34 -13 31.68 -13 31 C-13.66 31 -14.32 31 -15 31 C-15 29.02 -15 27.04 -15 25 C-11.78548731 23.39274365 -8.56387464 23.94251815 -5 24 C-5 23.34 -5 22.68 -5 22 C-3.35 21.67 -1.7 21.34 0 21 C0 14.07 0 7.14 0 0 Z " fill="#1F1F1D" transform="translate(169,19)"/>
<path d="M0 0 C4.62 0 9.24 0 14 0 C14.495 1.98 14.495 1.98 15 4 C15.66 4 16.32 4 17 4 C17.28571429 11.42857143 17.28571429 11.42857143 15 15 C14.01 15 13.02 15 12 15 C12 15.99 12 16.98 12 18 C11.34 18 10.68 18 10 18 C9.67 19.32 9.34 20.64 9 22 C8.34 22 7.68 22 7 22 C7 22.66 7 23.32 7 24 C6.34 24 5.68 24 5 24 C4.505 26.475 4.505 26.475 4 29 C3.34 29 2.68 29 2 29 C2 30.32 2 31.64 2 33 C1.34 33 0.68 33 0 33 C-0.87505695 37.15652053 -1.09322542 39.90040469 0 44 C0.66 44 1.32 44 2 44 C2 44.99 2 45.98 2 47 C2.66 47 3.32 47 4 47 C4.495 48.98 4.495 48.98 5 51 C5.66 51 6.32 51 7 51 C7 51.66 7 52.32 7 53 C8.485 53.495 8.485 53.495 10 54 C10 55.32 10 56.64 10 58 C10.66 58 11.32 58 12 58 C12.144375 59.051875 12.28875 60.10375 12.4375 61.1875 C12.87526966 64.15460549 13.37804866 67.06794366 14 70 C13.34 70 12.68 70 12 70 C12 73.3 12 76.6 12 80 C11.34 80 10.68 80 10 80 C10 80.66 10 81.32 10 82 C8.02090602 82.02686553 6.04171029 82.04633375 4.0625 82.0625 C2.96035156 82.07410156 1.85820312 82.08570313 0.72265625 82.09765625 C-2 82 -2 82 -3 81 C-4.68183948 80.76712992 -6.3712416 80.58735834 -8.0625 80.4375 C-9.44115234 80.31181641 -9.44115234 80.31181641 -10.84765625 80.18359375 C-11.55792969 80.12300781 -12.26820313 80.06242187 -13 80 C-13 79.01 -13 78.02 -13 77 C-15.64 77 -18.28 77 -21 77 C-21 76.34 -21 75.68 -21 75 C-22.65 75 -24.3 75 -26 75 C-26 74.34 -26 73.68 -26 73 C-26.78375 72.855625 -27.5675 72.71125 -28.375 72.5625 C-31 72 -31 72 -33 71 C-33 70.34 -33 69.68 -33 69 C-34.65 69 -36.3 69 -38 69 C-38 68.01 -38 67.02 -38 66 C-38.99 66 -39.98 66 -41 66 C-41 65.34 -41 64.68 -41 64 C-43.64 64 -46.28 64 -49 64 C-49.12375 64.7425 -49.2475 65.485 -49.375 66.25 C-49.95486701 68.80141485 -50.73708739 70.7267573 -52 73 C-52.66 73 -53.32 73 -54 73 C-54.144375 73.598125 -54.28875 74.19625 -54.4375 74.8125 C-54.8872439 76.56150404 -55.42892341 78.28677023 -56 80 C-56.99 80 -57.98 80 -59 80 C-59 81.98 -59 83.96 -59 86 C-59.66 86 -60.32 86 -61 86 C-61 87.65 -61 89.3 -61 91 C-61.99 91 -62.98 91 -64 91 C-64 91.66 -64 92.32 -64 93 C-64.66 93 -65.32 93 -66 93 C-66 93.66 -66 94.32 -66 95 C-66.99 95 -67.98 95 -69 95 C-69 95.66 -69 96.32 -69 97 C-75.6 97 -82.2 97 -89 97 C-89 96.34 -89 95.68 -89 95 C-89.66 95 -90.32 95 -91 95 C-92.36421031 92.27157939 -91.87807211 90.39046682 -91.5625 87.375 C-91.46066406 86.37210937 -91.35882813 85.36921875 -91.25390625 84.3359375 C-91.17011719 83.56507813 -91.08632812 82.79421875 -91 82 C-90.34 82.33 -89.68 82.66 -89 83 C-89.33 85.97 -89.66 88.94 -90 92 C-85.71702469 93.05619003 -81.57014354 93.11702092 -77.1875 93.0625 C-76.14819336 93.05573242 -76.14819336 93.05573242 -75.08789062 93.04882812 C-73.39188932 93.03713156 -71.69593297 93.01919924 -70 93 C-69.71253906 92.41863281 -69.42507812 91.83726562 -69.12890625 91.23828125 C-65.82878934 84.69514287 -62.07988976 78.40649805 -58.3125 72.125 C-57.9198999 71.47039795 -57.5272998 70.8157959 -57.12280273 70.14135742 C-55.46498857 67.3890363 -53.78260412 64.67390618 -52 62 C-51.34 62 -50.68 62 -50 62 C-49.67 61.01 -49.34 60.02 -49 59 C-43.2483739 59.24475005 -40.16926686 61.01443683 -35.5234375 64.3125 C-22.71735311 72.87632114 -8.43532115 77.5936662 7 77 C8.69027769 71.20670952 9.12438756 64.5700287 6.6875 59 C5.09158654 57.03711511 5.09158654 57.03711511 3.5 55.5625 C2 54 2 54 0.625 51.0625 C-1.17038581 47.67888828 -3.00854118 46.31838059 -6 44 C-7.83284825 41.31618649 -8.97146241 39.08561277 -10 36 C-9.01 36 -8.02 36 -7 36 C-7 35.34 -7 34.68 -7 34 C-6.34 34 -5.68 34 -5 34 C-4.67 33.01 -4.34 32.02 -4 31 C-3.34 31 -2.68 31 -2 31 C-1.67 29.02 -1.34 27.04 -1 25 C-0.34 25 0.32 25 1 25 C1.185625 23.7934375 1.185625 23.7934375 1.375 22.5625 C1.684375 21.2940625 1.684375 21.2940625 2 20 C2.99 19.505 2.99 19.505 4 19 C4.495 17.515 4.495 17.515 5 16 C5.66 16 6.32 16 7 16 C7.33 14.35 7.66 12.7 8 11 C9.32 11.33 10.64 11.66 12 12 C11.505 7.545 11.505 7.545 11 3 C10.28972656 2.95101562 9.57945312 2.90203125 8.84765625 2.8515625 C7.92855469 2.77679688 7.00945312 2.70203125 6.0625 2.625 C5.14597656 2.55539063 4.22945313 2.48578125 3.28515625 2.4140625 C2.15400391 2.20910156 2.15400391 2.20910156 1 2 C0.505 1.01 0.505 1.01 0 0 Z " fill="#FAFAFA" transform="translate(159,101)"/>
<path d="M0 0 C1.65 0 3.3 0 5 0 C5 0.66 5 1.32 5 2 C5.66 2 6.32 2 7 2 C7 3.65 7 5.3 7 7 C7.99 7 8.98 7 10 7 C10 8.98 10 10.96 10 13 C10.66 13 11.32 13 12 13 C12 13.99 12 14.98 12 16 C13.98 16 15.96 16 18 16 C18.33 15.01 18.66 14.02 19 13 C24.36842105 12.64210526 24.36842105 12.64210526 26.875 14.0625 C28.58196395 17.00227124 28.18799766 19.67870803 28 23 C27.01 23.33 26.02 23.66 25 24 C24.505 25.485 24.505 25.485 24 27 C23.34 27 22.68 27 22 27 C22 28.98 22 30.96 22 33 C22.99 33.33 23.98 33.66 25 34 C25 36.64 25 39.28 25 42 C12.33029613 42.3690205 12.33029613 42.3690205 7 40 C7 40.66 7 41.32 7 42 C6.34 42 5.68 42 5 42 C4.87625 42.639375 4.7525 43.27875 4.625 43.9375 C4.315625 44.9584375 4.315625 44.9584375 4 46 C0.95016004 47.52491998 -1.6423369 47.23562548 -5 47 C-6.9375 45.9375 -6.9375 45.9375 -8 44 C-8.1875 40.3125 -8.1875 40.3125 -8 37 C-8.66 37 -9.32 37 -10 37 C-10 36.34 -10 35.68 -10 35 C-10.99 35 -11.98 35 -13 35 C-13 34.34 -13 33.68 -13 33 C-14.65 33 -16.3 33 -18 33 C-18 32.34 -18 31.68 -18 31 C-18.66 31 -19.32 31 -20 31 C-20 29.02 -20 27.04 -20 25 C-19.34 25.33 -18.68 25.66 -18 26 C-18 26.66 -18 27.32 -18 28 C-17.22914063 28.13277344 -16.45828125 28.26554687 -15.6640625 28.40234375 C-14.66117188 28.57894531 -13.65828125 28.75554688 -12.625 28.9375 C-11.12839844 29.19853516 -11.12839844 29.19853516 -9.6015625 29.46484375 C-7 30 -7 30 -5 31 C-3.72631579 38.17894737 -3.72631579 38.17894737 -5 42 C-3.35 42.33 -1.7 42.66 0 43 C0.103125 42.401875 0.20625 41.80375 0.3125 41.1875 C1.13315798 38.57631553 1.74261495 37.55681728 4 36 C7.09501208 35.74734595 9.20129973 35.60064987 12 37 C13.53668865 37.22467831 15.07968054 37.40796805 16.625 37.5625 C17.44226563 37.64628906 18.25953125 37.73007812 19.1015625 37.81640625 C20.04128906 37.90728516 20.04128906 37.90728516 21 38 C18.39986574 33.90892301 18.39986574 33.90892301 15.25 30.25 C14.63125 29.63125 14.63125 29.63125 14 29 C14 28.34 14 27.68 14 27 C14.639375 26.896875 15.27875 26.79375 15.9375 26.6875 C16.618125 26.460625 17.29875 26.23375 18 26 C18.495 24.515 18.495 24.515 19 23 C19.66 23 20.32 23 21 23 C21 22.01 21 21.02 21 20 C21.99 20 22.98 20 24 20 C23.505 18.02 23.505 18.02 23 16 C22.360625 16.33 21.72125 16.66 21.0625 17 C13.22382671 19.55956679 13.22382671 19.55956679 9 18 C4.56694668 12.70380019 2.03371445 6.54325518 0 0 Z " fill="#FAFAFA" transform="translate(174,19)"/>
<path d="M0 0 C2.97 0 5.94 0 9 0 C9.33 0.99 9.66 1.98 10 3 C10.66 3 11.32 3 12 3 C12 3.66 12 4.32 12 5 C12.99 5 13.98 5 15 5 C15 5.66 15 6.32 15 7 C15.66 7 16.32 7 17 7 C17 9.97 17 12.94 17 16 C17.99 16 18.98 16 20 16 C20 18.97 20 21.94 20 25 C20.66 25 21.32 25 22 25 C23.20272819 27.40545638 23.10071472 28.94996953 23.0625 31.625 C23.05347656 32.44226563 23.04445313 33.25953125 23.03515625 34.1015625 C23.02355469 34.72804687 23.01195313 35.35453125 23 36 C23.66 36 24.32 36 25 36 C25 38.97 25 41.94 25 45 C26.485 45.495 26.485 45.495 28 46 C28 46.99 28 47.98 28 49 C29.65 49 31.3 49 33 49 C31.75 50.5 31.75 50.5 30 52 C28.68 52 27.36 52 26 52 C25.36967867 50.79443396 24.7460503 49.58536811 24.125 48.375 C23.77695313 47.70210937 23.42890625 47.02921875 23.0703125 46.3359375 C20.27762041 40.24093797 18.96309632 33.78126409 17.5 27.27734375 C16.5414801 23.09130763 15.41446258 19.06144443 14 15 C13.649375 13.7625 13.29875 12.525 12.9375 11.25 C12.14882609 8.14615772 12.14882609 8.14615772 11 6 C10.01 5.67 9.02 5.34 8 5 C7.67 4.34 7.34 3.68 7 3 C4.6859378 2.26924352 2.35171131 1.59861742 0 1 C0 0.67 0 0.34 0 0 Z " fill="#F9F9F9" transform="translate(93,74)"/>
<path d="M0 0 C0.99 0.33 1.98 0.66 3 1 C2.67 1.33 2.34 1.66 2 2 C1.51930522 5.15122133 1.26087089 6.98280878 2 10 C6.07039237 15.21874329 11.53582964 16.70568729 17.8359375 17.56640625 C21.65839091 18.09022394 25.40968653 18.84890814 29.1875 19.625 C30.48042969 19.88539063 31.77335937 20.14578125 33.10546875 20.4140625 C34.06066406 20.60742188 35.01585937 20.80078125 36 21 C35.34 22.98 34.68 24.96 34 27 C33.505 25.515 33.505 25.515 33 24 C31.35 24 29.7 24 28 24 C28 23.34 28 22.68 28 22 C26.84242187 22.02320313 25.68484375 22.04640625 24.4921875 22.0703125 C22.95313149 22.08908148 21.41406845 22.10728046 19.875 22.125 C19.11445312 22.14175781 18.35390625 22.15851563 17.5703125 22.17578125 C12.96729269 22.21546246 9.33535996 21.75907577 5 20 C5 19.01 5 18.02 5 17 C4.01 17 3.02 17 2 17 C2 16.34 2 15.68 2 15 C1.34 15 0.68 15 0 15 C0 10.05 0 5.1 0 0 Z " fill="#F4F4F4" transform="translate(45,130)"/>
<path d="M0 0 C1.65 0 3.3 0 5 0 C5 0.66 5 1.32 5 2 C5.66 2 6.32 2 7 2 C7 3.65 7 5.3 7 7 C7.99 7 8.98 7 10 7 C10 8.98 10 10.96 10 13 C10.66 13 11.32 13 12 13 C12 13.99 12 14.98 12 16 C14.31 16 16.62 16 19 16 C18.67 16.66 18.34 17.32 18 18 C14.75332756 18.79510346 12.21425731 19.01019515 9 18 C4.5433478 12.74215189 2.02852832 6.52656937 0 0 Z " fill="#F3F3F3" transform="translate(174,19)"/>
<path d="M0 0 C0.33 1.98 0.66 3.96 1 6 C-2.32561865 7.76062164 -3.59173995 8.10784228 -7.3125 7.125 C-8.199375 6.75375 -9.08625 6.3825 -10 6 C-9.67 4.35 -9.34 2.7 -9 1 C-5.94152152 0.45627049 -3.11227195 0 0 0 Z " fill="#F6C51B" transform="translate(182,42)"/>
<path d="M0 0 C2.53069408 2.53069408 3.68376954 3.98014063 5.1875 7.0625 C5.53167969 7.75472656 5.87585938 8.44695313 6.23046875 9.16015625 C7 11 7 11 7 13 C4.69 13.33 2.38 13.66 0 14 C0 9.38 0 4.76 0 0 Z " fill="#F0C223" transform="translate(173,26)"/>
<path d="M0 0 C2.97 0 5.94 0 9 0 C9.33 0.99 9.66 1.98 10 3 C10.66 3 11.32 3 12 3 C11.67 3.99 11.34 4.98 11 6 C10.01 5.67 9.02 5.34 8 5 C7.67 4.34 7.34 3.68 7 3 C4.6859378 2.26924352 2.35171131 1.59861742 0 1 C0 0.67 0 0.34 0 0 Z " fill="#F0F0F0" transform="translate(93,74)"/>
<path d="M0 0 C0.33 0 0.66 0 1 0 C1 3.96 1 7.92 1 12 C-0.32 12 -1.64 12 -3 12 C-2.67 11.01 -2.34 10.02 -2 9 C-1.34 9 -0.68 9 0 9 C0 6.03 0 3.06 0 0 Z " fill="#F9F9F9" transform="translate(88,116)"/>
<path d="M0 0 C0.94875 0.350625 1.8975 0.70125 2.875 1.0625 C2.875 1.7225 2.875 2.3825 2.875 3.0625 C0.5318787 2.80688677 -1.80343403 2.46979228 -4.125 2.0625 C-4.455 1.4025 -4.785 0.7425 -5.125 0.0625 C-3.125 -0.9375 -3.125 -0.9375 0 0 Z " fill="#C3B582" transform="translate(188.125,50.9375)"/>
</svg>
